<svg xmlns="http://www.w3.org/2000/svg" xmlns:xlink="http://www.w3.org/1999/xlink" id="Layer_1" width="512" height="512" x="0" y="0" enable-background="new 0 0 512 512" version="1.1" viewBox="0 0 512 512" xml:space="preserve"><radialGradient id="SVGID_1_" cx="-369.751" cy="256" r="260" gradientUnits="userSpaceOnUse"><stop offset="0" style="stop-color:#009245"/><stop offset="1" style="stop-color:#006837"/></radialGradient><rect width="520" height="520" x="-629.751" y="-4" fill="url(#SVGID_1_)"/><polygon fill="#1D5BD8" points="-942.907 404.242 -992.272 316.381 -1037.72 353.381 -1008.355 404.242"/><polygon fill="#063096" points="-898.138 404.242 -888.772 353.381 -942.772 316.381 -992.272 404.242"/><circle cx="-1067.256" cy="211.589" r="87.861" fill="#FFF" stroke="#000" stroke-miterlimit="10"/><circle cx="-1067.256" cy="192.804" r="69.075" fill="#FFF" stroke="#000" stroke-miterlimit="10"/><line x1="-1204.539" x2="-908.007" y1="299.451" y2="299.451" fill="#FFF" stroke="#000" stroke-miterlimit="10"/><polygon fill="#FFF" stroke="#000" stroke-miterlimit="10" points="-1067.13 299.451 -1137.256 299.451 -1067.256 123.729 -997.131 123.729"/><g><path fill="#2384F7" d="M-1148.138,316.381c-23.35,0-44.569,9.112-60.306,23.971v127.781 c15.736,14.858,36.956,23.971,60.306,23.971c48.524,0,87.861-39.338,87.861-87.861S-1099.614,316.381-1148.138,316.381z"/><path fill="#1D5BD8" d="M-1087.726,340.45c-15.746-14.917-37.01-24.069-60.412-24.069c-0.042,0-0.084,0.003-0.126,0.003 l-69.999,175.72h70.125h0.001L-1087.726,340.45z"/><path fill="#063096" d="M-1060.277,404.367c0-25.13-10.553-47.794-27.466-63.808l-60.418,151.668c0.008,0,0.015,0.001,0.023,0.001 C-1099.614,492.229-1060.277,452.891-1060.277,404.367z"/></g><rect width="64" height="175.723" x="-1056.272" y="316.381" fill="#2384F7"/><rect width="64" height="175.723" x="-942.772" y="316.381" fill="#2384F7"/><rect width="54" height="175.723" x="-872.939" y="316.214" fill="#2384F7"/><polygon fill="#1D5BD8" points="-808.939 383.757 -808.939 316.214 -845.392 316.214 -872.939 363.929 -872.939 491.937 -861.396 491.937"/><polygon fill="#063096" points="-808.939 492.104 -808.939 383.838 -861.446 492.104"/><g><g><polygon fill="#1D5BD8" points="326.694 224.021 277.329 136.16 231.882 173.16 261.246 224.021"/><polygon fill="#063096" points="371.464 224.021 380.829 173.16 326.829 136.16 277.329 224.021"/><g><path fill="#2384F7" d="M121.463,136.16c-23.35,0-44.568,9.112-60.305,23.971v127.782c15.736,14.857,36.955,23.971,60.305,23.971 c48.525,0,87.861-39.338,87.861-87.862C209.324,175.498,169.988,136.16,121.463,136.16z"/><path fill="#1D5BD8" d="M181.875,160.229c-15.746-14.917-37.01-24.069-60.412-24.069c-0.041,0-0.084,0.003-0.125,0.003 l-70,175.72h70.125h0.002L181.875,160.229z"/><path fill="#063096" d="M209.324,224.146c0-25.13-10.553-47.794-27.466-63.808L121.44,312.006c0.008,0,0.015,0.002,0.022,0.002 C169.988,312.008,209.324,272.67,209.324,224.146z"/></g><rect width="64" height="175.723" x="213.329" y="136.16" fill="#2384F7"/><rect width="64" height="175.723" x="326.829" y="136.16" fill="#2384F7"/><rect width="54" height="175.722" x="396.662" y="135.993" fill="#2384F7"/><polygon fill="#1D5BD8" points="460.662 203.536 460.662 135.993 424.21 135.993 396.662 183.708 396.662 311.715 408.205 311.715"/><polygon fill="#063096" points="460.662 311.883 460.662 203.617 408.155 311.883"/></g><g><path fill="#FFF" d="M91.82,329.625l-6.37,6.651c-3.291-2.381-5.881-3.641-9.661-3.641c-6.791,0-11.201,5.04-11.201,16.451 c0,12.321,2.94,16.242,9.101,16.242c2.171,0,3.99-0.42,5.741-1.33v-10.011h-5.531l-1.26-8.892h19.322v24.223 c-5.111,3.36-11.832,5.32-17.922,5.32c-15.612,0-22.822-9.03-22.822-25.622c0-16.452,10.36-25.553,23.872-25.553 C82.369,323.465,87.83,326.125,91.82,329.625z"/><path fill="#FFF" d="M115.057,355.458h-3.57v17.922H98.535v-48.655h16.872c13.581,0,20.442,4.761,20.442,15.122 c0,6.301-2.871,10.011-8.961,13.231L139,373.38h-14.422L115.057,355.458z M111.486,346.637h4.341c4.41,0,6.721-2.1,6.721-6.79 c0-4.201-2.521-6.091-7.421-6.091h-3.641V346.637z"/><path fill="#FFF" d="M183.66,349.018c0,15.821-8.19,25.622-22.332,25.622s-22.262-9.45-22.262-25.622 c0-15.822,8.12-25.553,22.262-25.553S183.66,332.846,183.66,349.018z M152.508,349.018c0,11.761,2.939,16.312,8.82,16.312 c6.091,0,8.821-4.551,8.821-16.312c0-11.762-2.801-16.242-8.821-16.242C155.378,332.775,152.508,337.256,152.508,349.018z"/><path fill="#FFF" d="M227.759,357.068c0,9.871-6.44,17.571-19.602,17.571c-13.231,0-19.603-7.141-19.603-17.571v-32.344h12.951 v31.924c0,5.74,1.891,8.541,6.651,8.541c4.69,0,6.58-2.801,6.58-8.541v-31.924h13.021V357.068z"/><path fill="#FFF" d="M271.858,340.826c0,11.342-7.981,16.872-19.393,16.872h-4.971v15.682h-12.951v-48.655h16.662 C264.018,324.725,271.858,330.045,271.858,340.826z M258.627,340.896c0-4.62-2.45-7.07-7.631-7.07h-3.501v14.631h3.78 C255.967,348.457,258.627,346.287,258.627,340.896z"/></g></g><g><g><path fill="#2384F7" d="M-389.68,59.152c-46.699,0-89.137,18.225-120.609,47.941v255.563 c31.473,29.717,73.91,47.941,120.609,47.941c97.051,0,175.723-78.676,175.723-175.723S-292.629,59.152-389.68,59.152z"/><path fill="#1D5BD8" d="M-268.855,107.291c-31.492-29.834-74.02-48.139-120.824-48.139c-0.082,0-0.168,0.006-0.25,0.006 l-140,351.439h140.25h0.004L-268.855,107.291z"/><path fill="#063096" d="M-213.957,235.125c0-50.26-21.105-95.588-54.932-127.615l-120.836,303.336 c0.016,0,0.029,0.002,0.045,0.002C-292.629,410.848-213.957,332.172-213.957,235.125z"/></g><g><path fill="#FFF" d="M-510.924,438.4l-1.296,4.14c-2.376-0.18-3.924-0.864-4.896-2.7c-1.368,2.088-3.527,2.808-5.795,2.808 c-3.816,0-6.264-2.483-6.264-6.011c0-4.212,3.204-6.551,9.106-6.551h1.656v-0.648c0-2.088-0.792-2.664-2.987-2.664 c-1.188,0-3.096,0.36-5.004,1.009l-1.403-4.14c2.375-0.972,5.219-1.477,7.379-1.477c5.831,0,8.279,2.34,8.279,6.947v6.983 C-512.147,437.536-511.788,438.076-510.924,438.4z M-518.411,436.601v-3.096h-1.08c-2.304,0-3.384,0.828-3.384,2.52 c0,1.296,0.685,2.124,1.908,2.124C-519.887,438.148-518.987,437.536-518.411,436.601z"/><path fill="#FFF" d="M-491.124,427.926V442h-6.407v-12.923c0-1.764-0.576-2.231-1.44-2.231c-1.044,0-1.979,0.756-2.879,2.196 V442h-6.407v-19.186h5.579l0.468,2.16c1.691-1.908,3.491-2.809,5.831-2.809C-493.14,422.166-491.124,424.254-491.124,427.926z"/><path fill="#FFF" d="M-476.291,442c-1.548,5.075-5.147,7.847-11.339,8.099l-0.684-4.427c3.707-0.396,5.147-1.368,6.155-3.672 h-2.196l-5.615-19.186h6.804l2.915,15.19l3.348-15.19h6.588L-476.291,442z"/><path fill="#FFF" d="M-456.061,441.064c-1.548,1.079-3.708,1.583-5.472,1.583c-4.535,0-6.659-2.556-6.659-7.343v-8.099h-2.483 v-4.392h2.483v-4.067l6.407-0.756v4.823h4.355l-0.647,4.392h-3.708v8.026c0,1.8,0.612,2.376,1.656,2.376 c0.611,0,1.26-0.144,1.943-0.54L-456.061,441.064z"/><path fill="#FFF" d="M-447.779,416.012c0,1.979-1.512,3.527-3.672,3.527c-2.159,0-3.671-1.548-3.671-3.527 c0-1.98,1.512-3.528,3.671-3.528C-449.291,412.483-447.779,414.031-447.779,416.012z M-448.247,442h-6.407v-19.186h6.407V442z"/><path fill="#FFF" d="M-417.795,427.926V442h-6.407v-12.923c0-1.764-0.575-2.231-1.296-2.231c-0.936,0-1.728,0.756-2.447,2.196 V442h-6.407v-12.923c0-1.764-0.576-2.231-1.296-2.231c-0.936,0-1.728,0.756-2.447,2.196V442h-6.407v-19.186h5.579l0.468,2.124 c1.476-1.872,3.204-2.772,5.579-2.772c2.016,0,3.636,1.009,4.392,2.88c1.584-1.943,3.312-2.88,5.724-2.88 C-419.811,422.166-417.795,424.29-417.795,427.926z"/><path fill="#FFF" d="M-396.95,434.261h-11.734c0.36,3.096,1.836,3.815,4.067,3.815c1.476,0,2.808-0.54,4.464-1.691l2.592,3.527 c-1.872,1.548-4.464,2.735-7.667,2.735c-6.731,0-9.972-4.211-9.972-10.15c0-5.688,3.132-10.331,9.251-10.331 c5.58,0,9.107,3.6,9.107,9.936C-396.842,432.713-396.914,433.613-396.95,434.261z M-403.142,430.302 c-0.035-2.304-0.647-3.996-2.699-3.996c-1.691,0-2.628,1.008-2.88,4.212h5.579V430.302z"/><path fill="#FFF" d="M-388.669,439.192c0,1.151-0.432,2.195-1.295,4.176l-2.269,5.147h-3.419l1.548-6.479 c-1.008-0.648-1.548-1.656-1.548-2.88c0-1.943,1.512-3.455,3.491-3.455S-388.669,437.213-388.669,439.192z"/><path fill="#FFF" d="M-360.626,438.4l-1.296,4.14c-2.376-0.18-3.924-0.864-4.896-2.7c-1.368,2.088-3.527,2.808-5.795,2.808 c-3.816,0-6.264-2.483-6.264-6.011c0-4.212,3.204-6.551,9.106-6.551h1.656v-0.648c0-2.088-0.792-2.664-2.987-2.664 c-1.188,0-3.096,0.36-5.004,1.009l-1.403-4.14c2.375-0.972,5.219-1.477,7.379-1.477c5.831,0,8.279,2.34,8.279,6.947v6.983 C-361.85,437.536-361.49,438.076-360.626,438.4z M-368.113,436.601v-3.096h-1.08c-2.304,0-3.384,0.828-3.384,2.52 c0,1.296,0.685,2.124,1.908,2.124C-369.589,438.148-368.689,437.536-368.113,436.601z"/><path fill="#FFF" d="M-340.826,427.926V442h-6.407v-12.923c0-1.764-0.576-2.231-1.44-2.231c-1.044,0-1.979,0.756-2.879,2.196 V442h-6.407v-19.186h5.579l0.468,2.16c1.691-1.908,3.491-2.809,5.831-2.809C-342.842,422.166-340.826,424.254-340.826,427.926z"/><path fill="#FFF" d="M-325.993,442c-1.548,5.075-5.147,7.847-11.339,8.099l-0.684-4.427c3.707-0.396,5.147-1.368,6.155-3.672 h-2.196l-5.615-19.186h6.804l2.915,15.19l3.348-15.19h6.588L-325.993,442z"/><path fill="#FFF" d="M-296.944,442h-7.486l-2.304-13.462L-309.002,442h-7.415l-3.96-19.186h6.443l1.584,14.326l2.771-14.326 h6.083l2.304,14.326l1.979-14.326h6.155L-296.944,442z"/><path fill="#FFF" d="M-274.083,427.926V442h-6.407v-12.923c0-1.764-0.612-2.231-1.476-2.231c-0.973,0-1.944,0.756-2.844,2.196 V442h-6.407v-26.745l6.407-0.647v10.079c1.583-1.692,3.275-2.521,5.471-2.521C-276.099,422.166-274.083,424.29-274.083,427.926z"/><path fill="#FFF" d="M-253.239,434.261h-11.734c0.36,3.096,1.836,3.815,4.067,3.815c1.476,0,2.808-0.54,4.464-1.691 l2.592,3.527c-1.872,1.548-4.464,2.735-7.667,2.735c-6.731,0-9.972-4.211-9.972-10.15c0-5.688,3.132-10.331,9.251-10.331 c5.58,0,9.107,3.6,9.107,9.936C-253.131,432.713-253.203,433.613-253.239,434.261z M-259.431,430.302 c-0.035-2.304-0.647-3.996-2.699-3.996c-1.691,0-2.628,1.008-2.88,4.212h5.579V430.302z"/><path fill="#FFF" d="M-237.579,422.563l-1.044,6.191c-0.576-0.181-1.115-0.288-1.728-0.288c-2.304,0-3.204,1.728-3.779,4.428 V442h-6.407v-19.186h5.579l0.576,3.636c0.792-2.556,2.735-4.212,4.859-4.212C-238.803,422.238-238.263,422.347-237.579,422.563z"/><path fill="#FFF" d="M-219.76,434.261h-11.734c0.36,3.096,1.836,3.815,4.067,3.815c1.476,0,2.808-0.54,4.464-1.691l2.592,3.527 c-1.872,1.548-4.464,2.735-7.667,2.735c-6.731,0-9.972-4.211-9.972-10.15c0-5.688,3.132-10.331,9.251-10.331 c5.58,0,9.107,3.6,9.107,9.936C-219.651,432.713-219.724,433.613-219.76,434.261z M-225.951,430.302 c-0.035-2.304-0.647-3.996-2.699-3.996c-1.691,0-2.628,1.008-2.88,4.212h5.579V430.302z"/></g></g></svg>