<?xml version="1.0" encoding="utf-8"?>
<!-- Generator: Adobe Illustrator 22.1.0, SVG Export Plug-In . SVG Version: 6.00 Build 0)  -->
<svg version="1.1" id="Layer_1" xmlns="http://www.w3.org/2000/svg" xmlns:xlink="http://www.w3.org/1999/xlink" x="0px" y="0px"
	 viewBox="0 0 512 512" style="enable-background:new 0 0 512 512;" xml:space="preserve">
<style type="text/css">
	.st0{fill:#1D5BD8;}
	.st1{fill:#063096;}
	.st2{fill:#FFFFFF;stroke:#000000;stroke-miterlimit:10;}
	.st3{fill:none;stroke:#000000;stroke-miterlimit:10;}
	.st4{fill:#2384F7;}
</style>
<polygon class="st0" points="-942.9,404.2 -992.3,316.4 -1037.7,353.4 -1008.4,404.2 "/>
<polygon class="st1" points="-898.1,404.2 -888.8,353.4 -942.8,316.4 -992.3,404.2 "/>
<ellipse transform="matrix(0.7071 -0.7071 0.7071 0.7071 -462.2081 -692.6909)" class="st2" cx="-1067.3" cy="211.6" rx="87.9" ry="87.9"/>
<ellipse transform="matrix(0.7071 -0.7071 0.7071 0.7071 -448.925 -698.1929)" class="st2" cx="-1067.3" cy="192.8" rx="69.1" ry="69.1"/>
<line class="st3" x1="-1204.5" y1="299.5" x2="-908" y2="299.5"/>
<polygon class="st2" points="-1067.1,299.5 -1137.3,299.5 -1067.3,123.7 -997.1,123.7 "/>
<g>
	<path class="st4" d="M-1148.1,316.4c-23.3,0-44.6,9.1-60.3,24v127.8c15.7,14.9,37,24,60.3,24c48.5,0,87.9-39.3,87.9-87.9
		S-1099.6,316.4-1148.1,316.4z"/>
	<path class="st0" d="M-1087.7,340.5c-15.7-14.9-37-24.1-60.4-24.1c0,0-0.1,0-0.1,0l-70,175.7h70.1h0L-1087.7,340.5z"/>
	<path class="st1" d="M-1060.3,404.4c0-25.1-10.6-47.8-27.5-63.8l-60.4,151.7c0,0,0,0,0,0C-1099.6,492.2-1060.3,452.9-1060.3,404.4z
		"/>
</g>
<rect x="-1056.3" y="316.4" class="st4" width="64" height="175.7"/>
<rect x="-942.8" y="316.4" class="st4" width="64" height="175.7"/>
<rect x="-872.9" y="316.2" class="st4" width="54" height="175.7"/>
<polygon class="st0" points="-808.9,383.8 -808.9,316.2 -845.4,316.2 -872.9,363.9 -872.9,491.9 -861.4,491.9 "/>
<polygon class="st1" points="-808.9,492.1 -808.9,383.8 -861.4,492.1 "/>
<g>
	<g>
		<polygon class="st0" points="326.7,224 277.3,136.2 231.9,173.2 261.2,224 		"/>
		<polygon class="st1" points="371.5,224 380.8,173.2 326.8,136.2 277.3,224 		"/>
		<g>
			<path class="st4" d="M121.5,136.2c-23.3,0-44.6,9.1-60.3,24v127.8c15.7,14.9,37,24,60.3,24c48.5,0,87.9-39.3,87.9-87.9
				S170,136.2,121.5,136.2z"/>
			<path class="st0" d="M181.9,160.2c-15.7-14.9-37-24.1-60.4-24.1c0,0-0.1,0-0.1,0l-70,175.7h70.1h0L181.9,160.2z"/>
			<path class="st1" d="M209.3,224.1c0-25.1-10.6-47.8-27.5-63.8L121.4,312c0,0,0,0,0,0C170,312,209.3,272.7,209.3,224.1z"/>
		</g>
		<rect x="213.3" y="136.2" class="st4" width="64" height="175.7"/>
		<rect x="326.8" y="136.2" class="st4" width="64" height="175.7"/>
		<rect x="396.7" y="136" class="st4" width="54" height="175.7"/>
		<polygon class="st0" points="460.7,203.5 460.7,136 424.2,136 396.7,183.7 396.7,311.7 408.2,311.7 		"/>
		<polygon class="st1" points="460.7,311.9 460.7,203.6 408.2,311.9 		"/>
	</g>
	<g>
		<path d="M91.8,329.6l-6.4,6.7c-3.3-2.4-5.9-3.6-9.7-3.6c-6.8,0-11.2,5-11.2,16.5c0,12.3,2.9,16.2,9.1,16.2c2.2,0,4-0.4,5.7-1.3
			v-10h-5.5l-1.3-8.9H92v24.2c-5.1,3.4-11.8,5.3-17.9,5.3c-15.6,0-22.8-9-22.8-25.6c0-16.5,10.4-25.6,23.9-25.6
			C82.4,323.5,87.8,326.1,91.8,329.6z"/>
		<path d="M115.1,355.5h-3.6v17.9h-13v-48.7h16.9c13.6,0,20.4,4.8,20.4,15.1c0,6.3-2.9,10-9,13.2l12.1,20.3h-14.4L115.1,355.5z
			 M111.5,346.6h4.3c4.4,0,6.7-2.1,6.7-6.8c0-4.2-2.5-6.1-7.4-6.1h-3.6C111.5,333.8,111.5,346.6,111.5,346.6z"/>
		<path d="M183.7,349c0,15.8-8.2,25.6-22.3,25.6s-22.3-9.5-22.3-25.6c0-15.8,8.1-25.6,22.3-25.6S183.7,332.8,183.7,349z M152.5,349
			c0,11.8,2.9,16.3,8.8,16.3c6.1,0,8.8-4.6,8.8-16.3c0-11.8-2.8-16.2-8.8-16.2C155.4,332.8,152.5,337.3,152.5,349z"/>
		<path d="M227.8,357.1c0,9.9-6.4,17.6-19.6,17.6c-13.2,0-19.6-7.1-19.6-17.6v-32.3h13v31.9c0,5.7,1.9,8.5,6.7,8.5
			c4.7,0,6.6-2.8,6.6-8.5v-31.9h13L227.8,357.1L227.8,357.1z"/>
		<path d="M271.9,340.8c0,11.3-8,16.9-19.4,16.9h-5v15.7h-13v-48.7h16.7C264,324.7,271.9,330,271.9,340.8z M258.6,340.9
			c0-4.6-2.5-7.1-7.6-7.1h-3.5v14.6h3.8C256,348.5,258.6,346.3,258.6,340.9z"/>
	</g>
</g>
<g>
	<g>
		<path class="st4" d="M-389.7,59.2c-46.7,0-89.1,18.2-120.6,47.9v255.6c31.5,29.7,73.9,47.9,120.6,47.9
			c97.1,0,175.7-78.7,175.7-175.7S-292.6,59.2-389.7,59.2z"/>
		<path class="st0" d="M-268.9,107.3c-31.5-29.8-74-48.1-120.8-48.1c-0.1,0-0.2,0-0.2,0l-140,351.4h140.2h0L-268.9,107.3z"/>
		<path class="st1" d="M-214,235.1c0-50.3-21.1-95.6-54.9-127.6l-120.8,303.3c0,0,0,0,0,0C-292.6,410.8-214,332.2-214,235.1z"/>
	</g>
	<g>
		<path d="M-510.9,438.4l-1.3,4.1c-2.4-0.2-3.9-0.9-4.9-2.7c-1.4,2.1-3.5,2.8-5.8,2.8c-3.8,0-6.3-2.5-6.3-6c0-4.2,3.2-6.6,9.1-6.6
			h1.7v-0.6c0-2.1-0.8-2.7-3-2.7c-1.2,0-3.1,0.4-5,1l-1.4-4.1c2.4-1,5.2-1.5,7.4-1.5c5.8,0,8.3,2.3,8.3,6.9v7
			C-512.1,437.5-511.8,438.1-510.9,438.4z M-518.4,436.6v-3.1h-1.1c-2.3,0-3.4,0.8-3.4,2.5c0,1.3,0.7,2.1,1.9,2.1
			C-519.9,438.1-519,437.5-518.4,436.6z"/>
		<path d="M-491.1,427.9V442h-6.4v-12.9c0-1.8-0.6-2.2-1.4-2.2c-1,0-2,0.8-2.9,2.2v13h-6.4v-19.2h5.6l0.5,2.2
			c1.7-1.9,3.5-2.8,5.8-2.8C-493.1,422.2-491.1,424.3-491.1,427.9z"/>
		<path d="M-476.3,442c-1.5,5.1-5.1,7.8-11.3,8.1l-0.7-4.4c3.7-0.4,5.1-1.4,6.2-3.7h-2.2l-5.6-19.2h6.8l2.9,15.2l3.3-15.2h6.6
			L-476.3,442z"/>
		<path d="M-456.1,441.1c-1.5,1.1-3.7,1.6-5.5,1.6c-4.5,0-6.7-2.6-6.7-7.3v-8.1h-2.5v-4.4h2.5v-4.1l6.4-0.8v4.8h4.4l-0.6,4.4h-3.7v8
			c0,1.8,0.6,2.4,1.7,2.4c0.6,0,1.3-0.1,1.9-0.5L-456.1,441.1z"/>
		<path d="M-447.8,416c0,2-1.5,3.5-3.7,3.5c-2.2,0-3.7-1.5-3.7-3.5c0-2,1.5-3.5,3.7-3.5C-449.3,412.5-447.8,414-447.8,416z
			 M-448.2,442h-6.4v-19.2h6.4V442z"/>
		<path d="M-417.8,427.9V442h-6.4v-12.9c0-1.8-0.6-2.2-1.3-2.2c-0.9,0-1.7,0.8-2.4,2.2v13h-6.4v-12.9c0-1.8-0.6-2.2-1.3-2.2
			c-0.9,0-1.7,0.8-2.4,2.2v13h-6.4v-19.2h5.6l0.5,2.1c1.5-1.9,3.2-2.8,5.6-2.8c2,0,3.6,1,4.4,2.9c1.6-1.9,3.3-2.9,5.7-2.9
			C-419.8,422.2-417.8,424.3-417.8,427.9z"/>
		<path d="M-397,434.3h-11.7c0.4,3.1,1.8,3.8,4.1,3.8c1.5,0,2.8-0.5,4.5-1.7l2.6,3.5c-1.9,1.5-4.5,2.7-7.7,2.7
			c-6.7,0-10-4.2-10-10.1c0-5.7,3.1-10.3,9.3-10.3c5.6,0,9.1,3.6,9.1,9.9C-396.8,432.7-396.9,433.6-397,434.3z M-403.1,430.3
			c0-2.3-0.6-4-2.7-4c-1.7,0-2.6,1-2.9,4.2h5.6V430.3z"/>
		<path d="M-388.7,439.2c0,1.2-0.4,2.2-1.3,4.2l-2.3,5.1h-3.4l1.5-6.5c-1-0.6-1.5-1.7-1.5-2.9c0-1.9,1.5-3.5,3.5-3.5
			S-388.7,437.2-388.7,439.2z"/>
		<path d="M-360.6,438.4l-1.3,4.1c-2.4-0.2-3.9-0.9-4.9-2.7c-1.4,2.1-3.5,2.8-5.8,2.8c-3.8,0-6.3-2.5-6.3-6c0-4.2,3.2-6.6,9.1-6.6
			h1.7v-0.6c0-2.1-0.8-2.7-3-2.7c-1.2,0-3.1,0.4-5,1l-1.4-4.1c2.4-1,5.2-1.5,7.4-1.5c5.8,0,8.3,2.3,8.3,6.9v7
			C-361.9,437.5-361.5,438.1-360.6,438.4z M-368.1,436.6v-3.1h-1.1c-2.3,0-3.4,0.8-3.4,2.5c0,1.3,0.7,2.1,1.9,2.1
			C-369.6,438.1-368.7,437.5-368.1,436.6z"/>
		<path d="M-340.8,427.9V442h-6.4v-12.9c0-1.8-0.6-2.2-1.4-2.2c-1,0-2,0.8-2.9,2.2v13h-6.4v-19.2h5.6l0.5,2.2
			c1.7-1.9,3.5-2.8,5.8-2.8C-342.8,422.2-340.8,424.3-340.8,427.9z"/>
		<path d="M-326,442c-1.5,5.1-5.1,7.8-11.3,8.1l-0.7-4.4c3.7-0.4,5.1-1.4,6.2-3.7h-2.2l-5.6-19.2h6.8l2.9,15.2l3.3-15.2h6.6
			L-326,442z"/>
		<path d="M-296.9,442h-7.5l-2.3-13.5L-309,442h-7.4l-4-19.2h6.4l1.6,14.3l2.8-14.3h6.1l2.3,14.3l2-14.3h6.2L-296.9,442z"/>
		<path d="M-274.1,427.9V442h-6.4v-12.9c0-1.8-0.6-2.2-1.5-2.2c-1,0-1.9,0.8-2.8,2.2v13h-6.4v-26.7l6.4-0.6v10.1
			c1.6-1.7,3.3-2.5,5.5-2.5C-276.1,422.2-274.1,424.3-274.1,427.9z"/>
		<path d="M-253.2,434.3H-265c0.4,3.1,1.8,3.8,4.1,3.8c1.5,0,2.8-0.5,4.5-1.7l2.6,3.5c-1.9,1.5-4.5,2.7-7.7,2.7
			c-6.7,0-10-4.2-10-10.1c0-5.7,3.1-10.3,9.3-10.3c5.6,0,9.1,3.6,9.1,9.9C-253.1,432.7-253.2,433.6-253.2,434.3z M-259.4,430.3
			c0-2.3-0.6-4-2.7-4c-1.7,0-2.6,1-2.9,4.2h5.6V430.3z"/>
		<path d="M-237.6,422.6l-1,6.2c-0.6-0.2-1.1-0.3-1.7-0.3c-2.3,0-3.2,1.7-3.8,4.4v9.1h-6.4v-19.2h5.6l0.6,3.6
			c0.8-2.6,2.7-4.2,4.9-4.2C-238.8,422.2-238.3,422.3-237.6,422.6z"/>
		<path d="M-219.8,434.3h-11.7c0.4,3.1,1.8,3.8,4.1,3.8c1.5,0,2.8-0.5,4.5-1.7l2.6,3.5c-1.9,1.5-4.5,2.7-7.7,2.7
			c-6.7,0-10-4.2-10-10.1c0-5.7,3.1-10.3,9.3-10.3c5.6,0,9.1,3.6,9.1,9.9C-219.7,432.7-219.7,433.6-219.8,434.3z M-226,430.3
			c0-2.3-0.6-4-2.7-4c-1.7,0-2.6,1-2.9,4.2h5.6L-226,430.3L-226,430.3z"/>
	</g>
</g>
</svg>
